<?xml version="1.0" encoding="UTF-8"?>
<svg width="24px" height="24px" viewBox="0 0 24 24" version="1.1" xmlns="http://www.w3.org/2000/svg" xmlns:xlink="http://www.w3.org/1999/xlink">
    <!-- Generator: Sketch 59.1 (86144) - https://sketch.com -->
    <title>Shape</title>
    <desc>Created with Sketch.</desc>
    <g id="Splash-7-Nov" stroke="none" stroke-width="1" fill="none" fill-rule="evenodd">
        <g id="front-page-1400" transform="translate(-104.000000, -1619.000000)" fill="#ffffff" fill-rule="nonzero">
            <g id="footer" transform="translate(0.000000, 1424.000000)">
                <g id="social" transform="translate(64.000000, 194.000000)">
                    <g id="Group" transform="translate(40.000000, 1.000000)">
                        <path d="M20,0 C22.209139,0 24,1.790861 24,4 L24,20 C24,22.209139 22.209139,24 20,24 L4,24 C1.790861,24 0,22.209139 0,20 L0,4 C0,1.790861 1.790861,0 4,0 L20,0 Z M16,7.28 L16,4.5 L13.71,4.5 C11.61,4.5 10.29,6.1 10.29,8.39 L10.29,10.06 L8,10.06 L8,12.83 L10.29,12.83 L10.29,19.5 L13.14,19.5 L13.14,12.83 L15.43,12.83 L16,10.06 L13.14,10.06 L13.14,8.94 C13.14,7.84 13.72,7.28 14.86,7.28 L16,7.28 Z" id="Shape"></path>
                    </g>
                </g>
            </g>
        </g>
    </g>
</svg>