<?xml version="1.0" encoding="UTF-8"?>
<svg width="24px" height="24px" viewBox="0 0 24 24" version="1.1" xmlns="http://www.w3.org/2000/svg" xmlns:xlink="http://www.w3.org/1999/xlink">
    <!-- Generator: Sketch 59.1 (86144) - https://sketch.com -->
    <title>Shape</title>
    <desc>Created with Sketch.</desc>
    <g id="Splash-7-Nov" stroke="none" stroke-width="1" fill="none" fill-rule="evenodd">
        <g id="front-page-1400" transform="translate(-184.000000, -1618.000000)" fill="#ffffff" fill-rule="nonzero">
            <g id="footer" transform="translate(0.000000, 1424.000000)">
                <g id="social" transform="translate(64.000000, 194.000000)">
                    <g id="Group" transform="translate(120.000000, 0.000000)">
                        <path d="M20,0 C22.209139,0 24,1.790861 24,4 L24,20 C24,22.209139 22.209139,24 20,24 L4,24 C1.790861,24 0,22.209139 0,20 L0,4 C0,1.790861 1.790861,0 4,0 L20,0 Z M15.11,4.5 L8.9,4.5 C6.33,4.5 4.6,6.15 4.5,8.66 L4.5,15.09 C4.5,16.39 4.92,17.5 5.77,18.32 C6.55260751,19.0522221 7.57846756,19.4689777 8.65,19.49 L8.92,19.5 L15.08,19.5 C16.38,19.5 17.48,19.08 18.26,18.32 C19.038218,17.5341633 19.4794531,16.4759165 19.49,15.37 L19.5,15.11 L19.5,8.9 C19.5,7.62 19.08,6.54 18.29,5.75 C17.5121883,4.97806214 16.4657105,4.53725127 15.37,4.52 L15.11,4.51 L15.11,4.5 Z M8.91,5.9 L15.15,5.9 C16.05,5.9 16.81,6.16 17.35,6.7 C17.82,7.2 18.12,7.88 18.16,8.67 L18.16,15.1 C18.16,16.04 17.84,16.8 17.29,17.31 C16.79,17.78 16.12,18.05 15.31,18.09 L8.92,18.09 C8.01,18.09 7.25,17.83 6.71,17.31 C6.21,16.81 5.94,16.14 5.9,15.31 L5.9,8.88 C5.9,7.98 6.16,7.22 6.7,6.68 C7.24661558,6.18056506 7.95958285,5.90250783 8.7,5.9 L15.15,5.9 L8.92,5.9 L8.91,5.9 Z M12,8.1 C9.97039882,8.24599924 8.39838822,9.93515437 8.39838822,11.97 C8.39838822,14.0048456 9.97039882,15.6940008 12,15.84 C14.0296012,15.6940008 15.6016118,14.0048456 15.6016118,11.97 C15.6016118,9.93515437 14.0296012,8.24599924 12,8.1 L12,8.1 Z M12,9.49 C13.3651349,9.50087809 14.4691219,10.6048651 14.48,11.97 C14.4691219,13.3351349 13.3651349,14.4391219 12,14.45 C10.6348651,14.4391219 9.53087809,13.3351349 9.52,11.97 C9.53087809,10.6048651 10.6348651,9.50087809 12,9.49 L12,9.49 Z M16.02,7.13 C15.5339894,7.13 15.14,7.52398942 15.14,8.01 C15.14,8.49601058 15.5339894,8.89 16.02,8.89 C16.5060106,8.89 16.9,8.49601058 16.9,8.01 C16.9,7.52398942 16.5060106,7.13 16.02,7.13 L16.02,7.13 Z" id="Shape"></path>
                    </g>
                </g>
            </g>
        </g>
    </g>
</svg>