<?xml version="1.0" encoding="utf-8"?>
<!-- Generator: Adobe Illustrator 25.4.1, SVG Export Plug-In . SVG Version: 6.00 Build 0)  -->
<svg version="1.1" id="Layer_1" xmlns="http://www.w3.org/2000/svg" xmlns:xlink="http://www.w3.org/1999/xlink" x="0px" y="0px"
	 width="657.5px" height="580px" viewBox="0 0 657.5 580" style="enable-background:new 0 0 657.5 580;" xml:space="preserve">
<style type="text/css">
	.st0{fill-rule:evenodd;clip-rule:evenodd;fill:none;}
</style>
<path class="st0" d="M330.8,168.8c-5.8,6.3-5.8,5.9-13.4,10c3,1.9,3.1,2.3,6.4,5.2C326.9,176.4,326.8,176.3,330.8,168.8z M355.4,112
	c0.1-1.2,0.1-2.3,0.1-3.5c0-12.6-16-24.4-30.1-34.9c-7.3-5.4-14.1-10.4-17.9-15c-1.9-2.3-4.1-5-6.5-8C285.3,31.3,260,0,239.5,0
	c-42.8,0-91,65.7-91,108.5c0,27,34.5,50.8,70.7,64.6c-22.2,4.3-137.9-36.3-149.3,35.7c-1.4,9.1-44.9,42.6-61.7,81.1
	c-13.6,31.2-12.9,76.1,22,130.8C53.9,458,15.5,486.9,120.5,550c17-9.1,12.1,15,32.2-15.5c24.8-37.6,61.6-93.5,102.8-93.5
	c11.5,0,22.7-17.4,33.3-34c8.2-12.8,20-24.6,27.5-28.1c8.8-4.1,13.2-7.8,20.8-10.6c-15,10.5-22.2,14.1-27.4,18.9
	c-21,19.6-29.1,60.4-9.4,81.4c19.6,21,52.5,22,73.5,2.4c2.6-2.4,5.5-5.2,8.6-8.2c16.1,96.9,169.5,143.9,201.1,101.2
	c64.5-99.6,74-79.3,74-153.3V409c0-55.4-33.4-103-81.1-123.8c45.6-42.8,63.4-110.5,39.5-172.6C584.5,30.9,492.8-9.9,411.1,21.6
	c-39.2,15.1-44.7,40.4-52,74C357.9,100.9,356.7,106.3,355.4,112z M378,347c0.1-0.1,0.1-0.1,0.2-0.2l0,0.2
	C378.2,347,378.1,347,378,347z"/>
</svg>
