<?xml version="1.0" encoding="UTF-8"?>
<svg width="24px" height="24px" viewBox="0 0 24 24" version="1.1" xmlns="http://www.w3.org/2000/svg" xmlns:xlink="http://www.w3.org/1999/xlink">
    <!-- Generator: Sketch 59.1 (86144) - https://sketch.com -->
    <title>Shape</title>
    <desc>Created with Sketch.</desc>
    <g id="Splash-7-Nov" stroke="none" stroke-width="1" fill="none" fill-rule="evenodd">
        <g id="front-page-1400" transform="translate(-144.000000, -1619.000000)" fill="#ffffff" fill-rule="nonzero">
            <g id="footer" transform="translate(0.000000, 1424.000000)">
                <g id="social" transform="translate(64.000000, 194.000000)">
                    <g id="Group" transform="translate(80.000000, 1.000000)">
                        <path d="M20,0 C22.209139,0 24,1.790861 24,4 L24,20 C24,22.209139 22.209139,24 20,24 L4,24 C1.790861,24 0,22.209139 0,20 L0,4 C0,1.790861 1.790861,0 4,0 L20,0 Z M15.58,5.79999272 C14.5769817,5.79789006 13.6281308,6.25483009 13.0044054,7.04033428 C12.3806799,7.82583848 12.1506486,8.8535533 12.38,9.83 C9.73892856,9.69885078 7.27789149,8.4519738 5.61,6.4 C4.72734611,7.89836118 5.17618939,9.825747 6.63,10.78 C6.10853908,10.7674134 5.59765507,10.6302634 5.14,10.38 L5.14,10.41 C5.13854646,11.9759087 6.24418887,13.3244574 7.78,13.63 C7.29441708,13.7634251 6.78473892,13.783949 6.29,13.69 C6.72124545,15.0277537 7.95469885,15.9438038 9.36,15.97 C7.98463867,17.050256 6.2362829,17.5395078 4.5,17.33 C6.00086031,18.2925415 7.74700823,18.8028471 9.53,18.8000118 C15.57,18.8000118 18.87,13.7999927 18.87,9.46 L18.87,9.04 C19.5101513,8.57482744 20.0621397,7.99913394 20.5,7.34 C19.91,7.6 19.28,7.78 18.61,7.86 C19.29,7.45 19.81,6.81 20.06,6.04 C19.42,6.42 18.72,6.69 17.97,6.84 C17.3488116,6.17554985 16.4795976,5.79889044 15.57,5.79999272 L15.58,5.79999272 Z" id="Shape"></path>
                    </g>
                </g>
            </g>
        </g>
    </g>
</svg>