<?xml version="1.0" encoding="utf-8"?>
<!-- Generator: Adobe Illustrator 25.4.1, SVG Export Plug-In . SVG Version: 6.00 Build 0)  -->
<svg version="1.1" id="Layer_1" xmlns="http://www.w3.org/2000/svg" xmlns:xlink="http://www.w3.org/1999/xlink" x="0px" y="0px"
	 viewBox="0 0 248 190" style="enable-background:new 0 0 248 190;" xml:space="preserve">
<style type="text/css">
	.st0{display:none;}
	.st1{display:inline;fill:#D6D6D6;}
	.st2{opacity:0.3;fill:#FFFFFF;}
	.st3{opacity:0.15;fill:#FFFFFF;enable-background:new    ;}
	.st4{display:inline;fill:#253228;}
</style>
<g id="Layer_2_00000011740327887810903500000014754122518222933158_" class="st0">
	<rect class="st1" width="248" height="190"/>
</g>
<g id="Layer_1_00000117643852324087834550000000520127671322705832_">
	<path class="st2" d="M246.5,119.7l0.6,0.2l-0.2-0.8c0.9-1.5,0.4-3.5,1.1-5.3c-0.1-0.5-0.1-0.9-0.1-1.4c-0.1,0-0.3,0-0.4,0
		c-0.2,0-0.4,0-0.5,0s-0.2,0-0.3,0c-0.1,0.1-0.2,0.1-0.2,0.2c-0.2,0.1-0.4,0.2-0.7,0.3h-0.1c-0.2,0-0.3,0.1-0.5,0.1
		c-0.3,0-0.6-0.1-0.9-0.2h-0.1c-0.1,0.1-0.3,0.1-0.4,0.2c-0.2,0.1-0.4,0.1-0.5,0.2c-0.3,0-0.6-0.2-0.8-0.4c-0.1-0.1-0.2-0.1-0.3-0.2
		s-0.3-0.2-0.4-0.2c-0.2,0-0.3,0.1-0.4,0.2l-0.1,0.1c-0.1,0.1-0.2,0.2-0.4,0.4c-0.1,0.1-0.3,0.2-0.4,0.3c-0.2,0.1-0.3,0.1-0.5,0.1
		h-0.3c-0.2,0-0.4,0-0.6,0.1H239c0,0.2,0,0.3,0.1,0.5h0.2c0.9,0,0.5,1.2,0,1.6v0.1c-0.1,0.2-0.2,0.4-0.3,0.6
		c-0.2,0.2-0.4,0.3-0.6,0.4c-0.2,0.1-0.5,0.2-0.8,0.2c-0.4,0-0.7-0.1-1-0.3l-0.1-0.1l-0.2,0.2c-0.2,0.2-0.3,0.5-0.4,0.6
		c-0.1,0.1-0.1,0.2-0.2,0.3c-0.1,0.2-0.3,0.3-0.5,0.4c-0.2,0.2-0.5,0.4-0.8,0.4s-0.6-0.3-0.9-0.9c-0.1-0.1-0.1-0.2-0.1-0.4l0,0
		c0,0,0,0,0-0.1l-0.1-0.4c-0.1-0.2-0.2-0.5-0.3-0.7c-0.2-0.2-0.4-0.5-0.6-0.7c-0.1-0.1-0.2-0.3-0.3-0.4c-0.6-0.1-1.2-0.2-1.8-0.2
		H230c-0.2,0-0.4,0-0.5-0.1l-0.3-0.1c-0.2-0.1-0.4-0.2-0.6-0.3h-0.2H228c-0.3,0-0.6-0.1-0.7-0.4c-0.3,0.1-0.6,0.2-0.9,0.3l-0.5,0.2
		c-0.1,0-0.2,0-0.4,0.1c-0.2,0-0.4,0-0.6,0l-0.5-0.1c-0.1,0-0.3,0-0.4-0.1c-0.3-0.2-0.6-0.2-1-0.3h-0.1c-0.1,0.1-0.1,0.2-0.2,0.3
		c-0.1,0.2-0.2,0.4-0.4,0.5c-0.2,0.2-0.4,0.2-0.6,0.3c-0.1,0-0.2,0-0.3,0c0,0,0,0,0,0.1c0,0.4-0.1,0.9-0.6,0.9l0,0
		c0,0.3-0.3,0.5-0.7,0.7c-0.1,0.1-0.3,0.2-0.5,0.2c-0.1,0-0.3,0.1-0.4,0.1l-48.3-0.1c0,2.8,0,6.2,0,10.2c0,9.2,0,20.3,0,30.3
		c0.1,0,0.1,0,0.2,0c0.6,0,1.1,0.2,1.6,0.5l0,0c0.1,0,0.2,0,0.3,0h0.1c0.6-0.4,0.7-0.4,1-0.4c0.1,0,0.2,0,0.2,0l0.3,0.1
		c0.3,0,0.5,0.1,0.8,0.1c0.7,0.1,1.5,0.2,1.9,0.2c0.2,0,0.4,0.1,0.6,0.2c0.5,0.3,0.9,0.7,1.2,1.1c0.2,0.2,0.4,0.3,0.5,0.6
		c0,0,0,0.1,0.1,0.3c0.2,0.4,0.3,0.9,0.4,1.3c0.1-0.1,0.3-0.2,0.5-0.3c0.3-0.2,0.7-0.4,1.1-0.4h0.2c0.2,0,0.4,0.1,0.7,0.1l1,0.1h0.3
		h0.1c0.4,0,0.7,0.1,1,0.4c0.2,0.2,0.4,0.4,0.6,0.6c0.1,0.2,0.2,0.5,0.3,0.8c0.1,0.4,0.2,0.8,0.3,1.2v0.1c0,0.1,0.1,0.3,0.1,0.4
		c0.2,0.3,0.5,0.7,0.7,1l0.3,0.4h0.4c0.1,0,0.3,0,0.4,0c1.2,0.2,2.8,1.6,3.6,2.3c0.2,0.2,0.4,0.5,0.4,0.8s0.5,0.8,1,1.2
		c0.5,0.3,1.1,0.5,1.7,0.6c-0.1-0.3-0.1-0.6,0-0.8c0.1-0.3,0.2-0.5,0.3-0.8c0.2-0.2,0.4-0.3,0.6-0.4c0.2-0.1,0.5-0.1,0.7-0.1
		s0.4,0,0.6,0.1c0.1,0,0.2,0.1,0.3,0.2h0.1c0.3-0.1,0.7-0.1,1.1-0.1c0.4,0,0.7,0.1,1.1,0.2c0.2,0.1,0.4,0.1,0.6,0.2
		c0.2,0.1,0.3,0.1,0.5,0.1c0.1,0,0.2,0,0.3,0h0.1h0.2c0.2,0,0.3,0,0.5,0.1l0.2,0.1c0.4,0.2,0.8,0.3,1.2,0.4c0.1,0,0.2,0,0.2,0
		c0.1-0.1,0.2-0.2,0.3-0.3s0.2-0.1,0.3-0.2c0.2-0.1,0.5-0.2,0.8-0.3h0.1c0.2,0,0.5,0.1,0.7,0.2l0.2,0.1l0.2,0.1
		c0.4,0.3,0.9,0.4,1.5,0.4s1.3-0.2,1.9-0.4l0.6-0.2l0.6-0.2c0.4-0.2,0.8-0.3,1.2-0.4l0.3-0.1h0.1c0.2,0,0.4,0.1,0.5,0.2
		c0.4,0.1,0.7,0.2,1,0.5l0,0h0.1c0.3,0.1,0.3,0.5,0.3,0.8c0,0.1,0,0.3,0,0.4c-0.1,0.3,0.1,0.7,0.5,1.4c0.3,0.4,0.5,0.9,0.7,1.3
		c0.1,0.2,0.2,0.5,0.2,0.7v0.1v0.1c0,0.3,0,0.5,0,0.8l3.3,1.6l2.6,1.3l1,0.5h0.1c1.1,0,2.1,0.4,3,1.1c0.1,0.1,0.3,0.2,0.3,0.4
		l0.3-0.2l-0.2-1.6c0.2-0.1,0.4-0.2,0.7-0.2h0.1c-0.2-0.7-0.4-1.1-1.2-1.2c0.5-0.7,0.3-1.1,0-1.8l0.4,0.2c0.3-0.9,1-3.6,1.2-4.5
		c-0.1-0.8-0.3-2.4,0.2-3.2h-0.4l1-0.8l-0.6-0.8l0.8,0.2l1.6-3.7l1.4-0.4l-0.6-1.2l0.6-0.2v0.8l0.4-0.2l-0.4-1.2l-0.4,0.2l0.2-0.4
		l-0.8-0.2l1.4-0.6c0.2-0.6,0.6-1.5,0-2l0.6-0.2c-0.3-1.6,0.6-2,1.6-2.9l-0.6-0.2l1-0.2l-1.2-0.4l1.4-0.2l0.2-1l-0.6,0.4l-0.4-0.4
		l0.6,0.2l-0.2-0.6l0.6,0.4c0-0.1,0.2-1.7,0.2-1.8l-0.4,0.4v-0.6l-0.2,0.2l-0.2-0.6l0.6,0.4l0.2-1v0.8l0.8-0.4
		c0.1-0.5,0.3-1.1-0.2-1.4c0.1,0,0.2,0,0.3,0c0.8,0,0.8-1,1.1-1.6l-0.6,0.8l-0.2-0.8h0.6v-0.8l0.2,0.8c0.1-0.3,1.1-1.4,0.6-1.8h0.4
		v0.6l2.4-1.4c-0.2-0.1-0.4-0.1-0.6-0.1c-0.4,0-0.7,0.2-1,0.5l-0.2-0.2l0.4-0.4l-0.2-0.4c0.2,0.2,0.5,0.3,0.8,0.3
		c0.2,0,0.5-0.1,0.6-0.3l0.2,0.4c1.2-2.4,2.3-0.7,2.4-3.5l-0.6-0.2v0.3l-0.8-0.4h1c0-1.4,0.6-1.8,1.6-2.6c1-2.9,2.2-6.5,1.6-9.6
		C245.3,126.4,248.1,120.3,246.5,119.7z"/>
	<path class="st3" d="M61.9,36.5c0.1-0.1,0.2-0.2,0.3-0.2h-0.1c-0.2-0.1-0.5-0.2-0.6-0.4V36c0,0.1,0,0.2,0,0.3l0.2,0.1
		C61.7,36.3,61.8,36.4,61.9,36.5z"/>
	<path class="st3" d="M95.8,137.4L95.8,137.4c-0.2-0.1-0.3-0.3-0.4-0.5s-0.1-0.3-0.1-0.5v-35.1c0-0.2,0.1-0.4,0.2-0.6
		c-0.1-0.2-0.2-0.4-0.2-0.6V34.9c-0.2-4.9-0.3-8.1,0-8.5l0,0c-1-0.1-1.9-0.4-2.8-0.9c-0.4-0.2-0.7-0.5-1-0.7l1,2.7h-0.4
		c0-0.7-0.7-1.6-1.2-2c0,0.7,0.1,1.8-0.6,2.2c0.3-0.6,0.5-0.9,0-1.4l0.4-0.2c-0.1-0.3-0.2-0.7-0.1-1c0-0.3,0.1-0.7,0.3-1
		c-2.2-2.4-3.3-6.1-7.4-6.2l0.1,0.1c-0.2,0-0.3-0.1-0.5,0c-0.3,0-0.5,0-0.8,0.1c0.2,0.3,0,0.5-0.3,0.8l-0.2-0.4l-0.2,1.2L81,18.4
		l-0.4,0.2l0.1-0.2c-0.3,0.1-0.7,0.3-1,0.4l0.4,0.4l-0.8,0.4l-0.1-0.5c-0.3,0.2-0.7,0.4-1,0.6l0.2,0.5l-0.6,0.4l0.4,0.8h-0.8v1
		c-0.6-0.5-0.7-0.7-0.4-1.4c-0.3,0-0.6,0.1-0.9,0.4c-0.2,0.2-0.4,0.5-0.5,0.8v-0.4c-0.9,0.8-1.7,1.6-2.5,2.5l0.8,0.3l0.2-0.4
		l0.4,0.2l-0.8,0.8l1,0.4h-0.5c-0.2,0-0.4,0-0.6-0.1s-0.3-0.3-0.3-0.5l-0.8,0.6l-0.2-0.4c-0.4,0.6-0.9,1-1.5,1.3l0.3,0.3l1-0.6v0.4
		h0.4L72,27.1l1.2,1l-1-0.8l-0.4,0.4c-0.2-0.6-0.5-0.9-1.2-1v-0.2h-0.1c-0.5,0-0.7,0.7-0.9,1l-0.2-0.4l-0.2,0.6c-0.1,0-0.1,0-0.2,0
		c-1.1,0-1.1,2.4-0.6,3.1l0.2-0.3v0.1L69,30l-0.3,0.3c0.2-0.4,0.6-1.2,1.1-1.3l-0.4,0.4H70c-0.9,0.4-0.9,1.1-1,2h0.4l-0.8,0.4L69,32
		l-0.4,0.2l-0.4-1L68,32.4c0.2,0,0.3,0.1,0.5,0.1l0.5,0.3c0.4,0,0.7,0.1,1,0.3c0.2,0.1,0.4,0.1,0.6,0.1c0.3,0,0.5-0.1,0.8-0.1
		c-0.3,0.2-0.6,0.3-0.9,0.3c-0.1,0-0.2,0-0.3-0.1c-0.1-0.1-0.1-0.1-0.2-0.2c-0.1,0-0.3,0-0.5,0.1c0.2,0.2,0.2,0.4,0.2,0.7
		c0,0.2,0,0.4-0.1,0.6c-0.1,0.2-0.2,0.3-0.4,0.5l-0.6,0.4c-0.2,0.1-0.4,0.2-0.7,0.2c-0.2,0-0.4,0-0.6-0.1s-0.4-0.3-0.5-0.5
		s-0.2-0.4-0.2-0.6v-0.8c0-0.2,0-0.3,0.1-0.5c-0.1-0.1-0.2-0.2-0.2-0.3c-1.2,0.8-3,1.1-4.2,2.1c1.2,0.3,1.5,0.3,1.8,1.6
		c0.3-0.2,1-0.3,0.8-0.8l0.4,0.2l-1,1l0.4,0.4l-0.6-0.2l1,1.8c-0.4-0.2-1.3-1.7-2-1.7c-0.1,0-0.1,0-0.2,0c-0.1,0-0.1,0.1-0.1,0.1
		l0.8,1.4l-0.4-0.2c-0.3,0.6-0.5,1.3-0.4,2c-1-0.8-1.6-1.9-1.8-3.2c-0.8-0.5-0.9-0.7-0.8-1.6c-3.6,1.1-5,4.3-5.3,7.8l0.6,0.1
		c0.2,0.9-0.5,1.1-1.1,1.6c-1.6,4-4.7,7.3-8.6,9.3c-12.8,7-28.7,6.9-39.6,17l0.4,0.4l-0.4-0.2c0.5,0.4-0.4,1.1-0.6,1.4l-0.4-0.6
		c-1.2,0.7-2.1,1.8-2.6,3.1c-0.5,1.3-0.7,2.7-0.4,4l-2,2.8c-0.4,3-0.7,3.5,1.2,6.1l-0.2,0.4c0.2,0.7,0.4,1.9,1.2,2.2l2.2,4.3
		c0.7,0,0.7,0.7,0.8,1.2H4.8C4.9,98,5.3,98.7,4,99.8l-0.1-0.1c0.3,2.8-0.8,5.9,0.7,8.6c-0.6,0.7-0.2,2.2,0,3
		c0.6,0.7,2.5,2.8,2.7,3.7c-0.6,0.7,1.2,2.6,1.6,3.1l0.8,2.8l-0.2,3.6v0.4l0.6,3.2c0.9,1.9,4.8,9,4.1,11.2l1-0.6v0.4l-1,0.2
		c0.1,0.6,0.3,1.1-0.2,1.6c0.4,1.1,0,2-0.6,3l0.6,4.5c-2.6,2-3.4,7.3,0,8.7c1.1,1.9,1.7,3.1,4.1,3.5l0.2-0.6l0.8,0.6h-1
		c0.4,0.2,1.1,0.8,1.6,0.8c0.1,0,0.3,0,0.4-0.1s0.2-0.2,0.3-0.3c0.5,0.4,1,0.5,1.6,0.5c0.8,0,1.5-0.1,2.3-0.3
		c0.3,0.3,0.7,0.5,1.2,0.5c0.1,0,0.3,0,0.4-0.1s0.3-0.1,0.4-0.3h0.1c0.8,0,1.3-0.6,1.9-1l-0.1,0.3c1.5-0.9,4-1.5,4.8-3.1l1-0.4
		l-0.4-0.4c0.2,0.1,0.4,0.1,0.7,0.1c1.3,0,2.5-1.5,3.8-2c0.4-0.3,1.8-1.9,2.5-1.9c0.1,0,0.1,0,0.2,0c3.9-0.1,7.9-1.3,11.9-1.3
		c0.8,0,1.7,0.1,2.5,0.2c2,0.1,4,0.5,5.7,0.5c2.7,0,4.8-0.9,5.3-5.3c0.3-0.9,3.5-1.7,4.3-2l7.1-4.1c0.5-0.2,1.1-0.3,1.7-0.3
		c0.9,0,1.9,0.1,2.8,0.3c0.1,0,0.2,0,0.3,0c2.7,0,10.6-2.6,12.7-3.2C95.3,137.7,95.6,137.6,95.8,137.4z"/>
	<path class="st3" d="M96.6,26.5V100h53.8V33.9c0-0.2,0-0.4,0.1-0.5c0-0.1,0-0.1,0-0.2c-0.6-0.3-1.2-0.6-1.8-0.9
		c-1.6-0.6-3.2-1.9-4.9-2c-2.7-1.9-8.9-3.1-8.3-7.7c1.8-4,4-2.5,3.2-8.1l0.4,0.2c0.1-0.1,0.2-0.3,0.3-0.4l-0.5-0.2
		c0-0.2,0.1-0.4,0.3-0.6c0.1-0.2,0.3-0.3,0.5-0.4l0.2,0.5c0.2-0.4,0.4-0.7,0.6-1.1l0.1,0.4c0.2-0.1,0.3-0.2,0.3-0.4
		c1.2-0.7,2.3-3.7,0.6-4.6c-0.1,0.1-0.2,0.2-0.3,0.3s-0.2,0.1-0.4,0.1s-0.4-0.1-0.6-0.1c-0.1,0-0.2,0-0.3,0.1s-0.2,0.1-0.2,0.2V8.1
		h-0.4l0.5-0.9h-0.1c-0.1,0-0.3,0-0.4,0.1c-0.1-0.4-0.7-0.4-1-0.5l-0.2,0.5l-0.6-0.4l0.2-0.2c-0.3,0-0.6-0.1-0.9-0.1
		c-0.7,0-1.3,0.1-2,0.1l0.7,0.4l-1.2-0.2l0.4,0.6c-1.9-1-4.3-0.8-6.3-1.6L128,6.7l0.3-0.8c-1.2-0.1-2.5-1.2-3.7-1.2
		c-0.2,0-0.4,0-0.6,0.1l0.1-0.5L124,4.2l0,0.1c-0.1-0.3-0.3-0.5-0.5-0.5c-0.1,0-0.2,0-0.3,0.1c-0.1,0-0.2,0.1-0.2,0.2l0.2-0.5h-0.1
		c-0.3,0-1,0.2-1,0.2C121.7,3,120.9,2,120.2,2c-0.2,0-0.4,0.1-0.6,0.2c-0.2,0.1-0.3,0.3-0.4,0.4l-1.4-2l-0.4,0.6
		c0-0.4-0.1-0.9-0.5-0.9c-0.1,0-0.2,0-0.3,0.1l0.2,0.6c-0.2-0.2-0.4-0.5-0.7-0.5c-0.1,0-0.1,0-0.2,0.1c0,0.4,0.1,0.8,0.5,0.9
		l-0.2,0.3c0.4,0.3,0.9,0.4,1.3,0.4c0.2,0,0.4,0,0.6-0.1v0.4h0.4l-0.4,0.2l0.6,0.2h-0.4l0.4,0.2l-0.1,0.1c0.1,0.1,0.3,0.1,0.5,0.1
		h0.4l-0.4,0.4c0.3,0.4,0.5,0.9,0.5,1.4s-0.2,1-0.5,1.4l0.6,0.2l-0.6-0.2c-0.3,0.6-1.3,0.8-1.6,1.4V7.8c-0.7,0.4-1.5,0.6-2.3,0.6
		c-1.3,0-2.6-0.3-3.9-0.3c-1,0-2,0.3-2.8,0.9l0.1,0.1h-0.1c-0.2,0-0.3,0.1-0.4,0.2l0.1,0.2l-0.4,0.4l-0.2-0.3
		c-0.3,0.2-0.5,0.4-0.8,0.7h0.1c-1,0.9-4.3,2.7-2.6,4.1c-0.1,0-0.2-0.1-0.3-0.1c-1.1,0-1.8,1.9-2.7,2.4h0.1c-1.5,1.2-0.2,3.3-0.3,5
		l0.1-0.1c-0.3,0.5-0.1,1-0.3,1.6l0.3-0.2l-0.2,0.6l1.3-0.8v0.6h-0.8l0.4,0.4c-0.3-0.1-0.6-0.2-1-0.2c-0.1,0-0.1,0-0.2,0
		c0,0.3-0.3,0.5-0.2,0.8l0,0c-0.1,0.1-0.2,0.3-0.2,0.5s0,0.4,0,0.5l-0.6,0.2v-0.1C99,26.1,97.8,26.6,96.6,26.5z"/>
	<path class="st3" d="M151.6,33.9V100h12c1.8-0.1,3.2-0.2,4.2-0.2c0.6,0,1.2,0.1,1.8,0.2h0.1c0.2,0,0.5,0.1,0.7,0.2s0.4,0.3,0.5,0.6
		c0.1,0.1,0.1,0.2,0.1,1.4c0.1,1.7,0.1,3.5,0,5.2c0,2,0,4.7,0,8.2l48.3,0.1c0.6-0.2,0.1-1,1-1c0-0.1,0-0.3,0-0.4s0.1-0.3,0.2-0.4
		c0.1-0.1,0.2-0.2,0.4-0.2c0.1,0,0.3-0.1,0.4,0c0.1,0,0.3,0,0.4,0c0.1-0.3,0.3-0.6,0.5-0.8c0.3-0.2,0.6-0.3,0.9-0.3
		c0.5,0,1,0.2,1.5,0.4c0.1,0,1,0.2,1,0.2c0.6-0.3,1.3-0.5,2-0.6c0.2,0,0.3,0,0.5,0.1c0.1,0.1,0.3,0.2,0.3,0.4c0.1,0,0.1,0,0.2,0
		c0.5,0.1,1,0.3,1.5,0.5h0.3c0.8,0,1.6,0.1,2.3,0.3c0.5,0.2,0.9,1.1,1.3,1.5c0.4,0.5,0.6,1.1,0.7,1.7c0.4-0.6,1.2-2,1.9-2
		c0.3,0,0.5,0.2,0.7,0.7c0.1,0.1,0.2,0.1,0.3,0.1c0.4,0,0.8-0.4,0.5-0.8c-0.7-2.2-0.1-2.6,2-2.6c0.2-0.3,0.5-0.6,0.8-0.8
		c0.3-0.2,0.7-0.3,1-0.4c0.3,0,0.6,0.1,0.8,0.2c0.4,0.2,0.5,0.6,0.9,0.6c0.2,0,0.3-0.1,0.5-0.2c0.1,0,0.1,0,0.2,0
		c0.3,0,0.7,0.2,1.1,0.2h0.1c0.1,0,0.3-0.1,0.4-0.2c0.1-0.1,0.2-0.3,0.4-0.3c0.2-0.1,0.3-0.1,0.5-0.1c0.3,0,0.6,0,0.8,0
		c0.1,0,0.2,0,0.3,0v-0.3c-0.1,0-0.1-0.1-0.2-0.3c-0.1,0-0.2,0-0.3,0l0,0c-0.3,0-0.6-0.1-0.8-0.3c-0.2-0.2-0.4-0.5-0.4-0.8
		c0-0.5,0-1.1,0.2-1.6c0.1-0.2,0.2-0.4,0.4-0.5c-0.3-0.6-0.8-1.1-1.1-1.5l-0.3,0.2c0.4-0.3,0-0.8-0.4-1
		c-0.7-12.7-2.2-14.1-12.4-21.7c-3-3.5-3.9-8.4-8.2-10.7l-0.5,0.6l0.3-0.8c-0.4-0.2-0.7-0.9-1.1-1h0.1c-2.1-2.7-3.1-6.4-4-9.4H219
		l-0.2-0.6l0.2-0.1c0-0.3-0.5-0.6-0.8-0.7l0.2-0.4l-0.6-0.6l0.3-0.1c-4.4-5.1-17.7-5.2-15.9-14.1c-1.5-1.6,0.2-3-0.1-4.7l0,0
		c-0.1-2.9-2.8-5.1-4.1-7.7c-2.6-4.3-0.1-12.2-6.5-12.2c-0.5,0-1.1,0-1.6,0.1c-0.3-0.1-0.5-0.3-0.7-0.3c-0.1,0-0.2,0.1-0.3,0.1
		l-1-0.8c-0.3-1.5-0.8-2.9-1.6-4.1c0.2-1.7-0.6-3.6-1.1-5.3H185c-0.2-1.3-0.8-2.5-1.6-3.5c-0.1-1.2-1.2-2.4-1.4-3.5
		c-0.2-2.7-1.5-4.1-2.7-4.1s-2.2,1.2-2.2,3.9h0.1c-0.3,0.4-0.2,1.3-0.5,1.9l0.3-0.3c-1.1,1.6-0.1,3.9-0.8,5.7
		c-2.9,6-0.1,12.7-2.6,18.6c-0.9,5.4-2.4,12.5-7.3,12.5c-1.6-0.1-3.2-0.6-4.6-1.6c-0.5-0.7-1.3-1.3-2.2-1.6l-0.3-1.1
		C156.8,34.2,153.3,37.1,151.6,33.9z"/>
	<path class="st3" d="M169.5,183.8c0.1-0.5,0.1-2.1,0.1-4.1c0-3,0-7.2,0-12.2c0-0.3,0-0.5,0-0.8c0-6,0-7.5,0-8.1
		c0-24.3,0.1-57.1,0-57.3h-73v35.1c0.7-0.1,6.4-0.5,6.9-0.8c1.2,0.1,2.1,0.3,3,0.3c1.1,0,2.2-0.4,3.1-1.1c2.9,1.6,6.5,3.5,9.9,3.6
		c1.2,1.2,2.7,1.9,4.3,2h0.4l-0.6-0.6l0.4-0.2l0.4,0.4l0.4-0.6l2.2,2.2l-0.6,0.2c0,0.3,0.4,0.6,0.7,0.6c0.2,0,0.3-0.1,0.5-0.2
		l0.8,0.2c0.7,1.8,2.7,2.6,3.8,4.2c4.6,6,3.8,9.7,5.5,9.7c1.1,0,3.1-1.4,8-4.7l0.5-0.4l-0.2-0.4c0,0.1,0.1,0.2,0.2,0.3
		c0.1,0.1,0.2,0.1,0.3,0.1c0.3,0,0.5-0.1,0.8-0.2c0.4-1.2,1.4-4.6,2.6-5.3l0.8,0.4l-0.3-1.2c0.1,0,0.3-0.1,0.4-0.1
		c0.2,0,0.5,0.1,0.7,0.2c0.2,0.2,0.3,0.4,0.4,0.6l0,0c0.1,0.4,0.1,0.8,0,1.2s-0.3,0.7-0.6,1l-0.2,0.2l1.2,2.2l-2.4,2.4
		c-0.1,0.3-0.5,2-1,2c0.9,1.9,1.6,3.8,2.1,5.9c0.5-0.6,0.7-2.3,0.7-3.1l1.2-2.8l2.8,4.8l0.2,0.3l-0.4,0.2l-0.2-0.6
		c-0.2,1.2,0.4,4.5-1.1,5.2c0.5,0.4,1.2,0.7,1.9,0.8c0.5,0,0.7-0.4,1.1-0.4c0.4,0,1.4,0.5,3.6,2.5l-2.3-1.7c1.1,0.8,2.1,1.7,3,2.7
		l-0.6-1C165.4,171.4,166.6,178.5,169.5,183.8z"/>
	<path class="st3" d="M158.1,165.6c-0.2-0.2-0.5-0.3-0.6-0.5L158.1,165.6z"/>
	<path class="st3" d="M223,182.1l1.6-1.4l0,0c-0.8-0.8-1.7-0.8-2.7-0.9l-7.6-3.7c-0.1-0.1-0.2-0.1-0.3-0.3c-0.1-0.1-0.1-0.2-0.1-0.4
		c0.7-1.9-1.8-3.2-1.2-5c-0.2-0.2-0.5-0.3-0.7-0.3c-0.5,0.1-0.9,0.2-1.3,0.4c-1.3,0.3-2.3,0.7-3.4,0.7c-0.9,0-1.8-0.3-2.5-0.8
		c-0.3,0-0.8,0.5-1,0.7c-0.2,0.1-0.4,0.1-0.6,0.1c-0.7-0.1-1.5-0.3-2.1-0.7c-0.2,0-0.4,0.1-0.5,0.1c-0.9,0-1.2-0.6-2.2-0.6
		c-0.4,0-0.7,0.1-1,0.2h-0.1c-0.3,0-0.6-0.3-0.8-0.4c-1,0,0.4,1.9-0.7,2c-0.3,0.1-0.5,0.1-0.8,0.1c-0.8,0-1.6-0.3-2.3-0.7
		c-0.8-0.4-1.6-1.2-1.7-2.2c-0.6-0.6-2-1.9-2.9-2h-0.6c-0.4,0-0.7,0-0.9-0.3c0-0.1-1.5-2-1.4-2.1c-0.1-0.4-0.3-2.5-1-2.5H184
		c-0.1,0-1.4-0.1-1.5-0.1c-0.2-0.1-0.4-0.1-0.6-0.1c-0.4,0-0.7,0.2-0.6,0.7c-0.1,0.4-0.3,0.6-0.5,0.6c-0.6,0-1.4-0.9-1.7-1.3
		c0-0.6-0.2-1.1-0.5-1.6s-0.7-0.9-1.2-1.2c-0.8-0.1-2.4-0.3-3.2-0.4l-0.8,0.5c-0.1,0.1-0.2,0.1-0.3,0.1c-0.6,0-1.4-0.8-2-0.8
		c-0.1,0-0.1,0-0.2,0c-0.2,0.4,0.3,25.3-0.2,25.6c0.6,0.6,2.5,1.5,2.1,2.7c0.1-0.1,0.3-0.1,0.4-0.1c0.3,0,0.5,0.1,0.7,0.3l1.2-1.4
		c1,0.5,1.8,1.1,2.8,1.1c0.4,0,0.8-0.1,1.2-0.3c2.7,2.1,6.3,1.3,9.5,1.7c0.9-0.9,2.6-2.4,4.1-2.4c0.1,0,0.3,0,0.4,0l0.4-1.2
		c-0.4,0.2-0.8,0.3-1.2,0.3c-0.2,0-0.4-0.1-0.5-0.1c-0.2-0.1-0.3-0.2-0.4-0.4c0.1,0,0.2,0.1,0.3,0.1c1,0,2.7-1.7,3.2-2l1.2,2.4
		c-0.8,1.1-0.9,1.5-1.5,1.5c-0.5,0-1-0.1-1.4-0.3l1.8,1.6c0.3-0.2,0.9-0.7,1.4-0.7c0.1,0,0.3,0.1,0.4,0.1l0.2-1.6h1.4l0.4,1.2
		c-1,0-0.8,0.6-1,1.4c0.7,0.6,1.2,0.9,1.9,0.9c0.3,0,0.6-0.1,0.9-0.1l0.2,0.4l-0.6-0.2c0.3,0.7,1.1,0.8,1.9,0.8c0.4,0,0.8,0,1.2-0.1
		l-0.1-0.6h0.1c4.1,0,6.9-4.6,10.5-6.3l-3.2,1.4l1.8-1.2c0,0-0.6-0.5-0.6-0.6c0.4,0.2,0.8,0.3,1.2,0.3c0.6,0,1.2-0.2,1.7-0.5
		l-0.2,0.4L223,182.1z"/>
</g>
<g id="Layer_3" class="st0">
	<ellipse class="st4" cx="233.3" cy="149.7" rx="2.3" ry="2.3"/>
</g>
</svg>
